<svg id="prefix__Layer_1" data-name="Layer 1" xmlns="http://www.w3.org/2000/svg" viewBox="0 0 885.33 500.56">
    <defs>
        <style>
            .prefix__cls-1 {
                fill: #ffbc2a
            }
        </style>
    </defs>
    <path class="prefix__cls-1"
        d="M518.8 492.5c-6.7-2.3-12.7-4-18.4-6.5-12.9-5.8-26.2-10.9-38.2-18.2-16.2-9.8-32.2-20.3-44.9-34.7-19.7-22.4-31.4-47.7-27.5-78.4 2.9-23.1 12-43.7 25.4-62.3 8-11.1 17.4-21.2 25.8-32.1 12.2-15.9 25-31.4 35.8-48.2 9.8-15.4 16.9-32.4 19.2-51 2-15.9.7-31-9.5-45.7 2.4.9 3.7 1.3 5 1.9a195.8 195.8 0 0165.3 51.3c28.2 34.1 38.7 73.4 30.2 117-4.6 23.4-12.8 45.7-25.7 65.9-8.2 12.9-17.4 25.2-25.8 38-11.1 16.7-20.3 34.1-22.2 54.6a115.5 115.5 0 004.1 42.5c.3 1.7.7 3.3 1.4 5.9z"
        transform="translate(-65 -115.4)" />
    <path class="prefix__cls-1 prefix__animate prefix__bounce prefix__animate__bounce"
        d="M606.4 262.3c4.4 8.2 9 16.4 13.1 24.7 9.7 19.4 16.3 39.7 18.1 61.3 2.4 28.9-4.3 55.3-24.2 77.1a194.8 194.8 0 01-24.6 22.4c-17.3 13.4-35.2 26.2-53.1 39.4-4.2-10.7-6.4-22.1-4.9-34a103 103 0 0116.9-45.2c8.2-12.2 17.6-23.5 25.4-35.8 18.6-29.2 28.8-61.4 32.4-95.8.5-4.5.1-9 .1-13.5z"
        transform="translate(-65 -115.4)" />
    <path class="prefix__cls-1"
        d="M279.1 598c3-7.9 5.5-14.2 7.7-20.6.5-1.4-.3-3.1-.5-4.7-.3-3.9-.8-7.8-.9-11.6 0-.6 1.8-1.6 2.7-1.6 10.4-.1 20.8-.1 32.1-.1 0 3.9.1 7.3 0 10.7 0 .8-.4 2.3-.8 2.3-5.9 1.1-3.7 5.8-3.8 9.1a98 98 0 00.2 13.6c.1 1.6 1.7 3 2.6 4.6.6.9 1.5 1.9 1.6 2.9.2 3.6.1 7.3.1 11.4h-26.6v-11.8c0-.7.2-1.7.6-1.9 8.3-4.4 1.3-11.6 4.2-17l-1.5-.4c-3.6 9.5-7.4 19-10.5 28.7-1.1 3.3-2.6 4.3-5.5 3.8-3.1-.6-7.2 2.2-8.9-3.5a231.8 231.8 0 00-11.6-29.6v14.4c0 .8.2 2.3.6 2.4 7.6 2.4 2.5 8.6 3.8 12.8.1.5-1.6 2.3-2.6 2.4-7.8.2-15.6.1-24.1.1 0-4.2-.1-8 0-11.8 0-.8.6-2.1 1-2.2 5.5-.8 3.5-4.9 3.6-8.1 0-4.4.1-8.7 0-13.1-.1-2.6.1-4.6-3-6.8-2-1.4-1.3-7.3-1.2-11.1 0-.7 3-1.8 4.6-1.8 8.6-.2 17.1 0 25.6-.1 3.4-.1 5 1.1 4.5 4.5-.5 3.2-1.3 6.3-1.9 9.4a6.3 6.3 0 00-.1 3c2.6 6.7 5.1 13.5 8 21.7zM532.6 613.8h-26.1v-15.4a3.1 3.1 0 01.2-1.3c4.5-9.7 4.5-9.6 3-21.8l-2.4 7.8c-2.7 9.5-5.3 19.1-8.3 28.5a5.6 5.6 0 01-3.5 3.5c-8.4 1.4-8.7 1-11.6-9-3.1-10.5-6.2-21-10.3-31.3v18.1c0 .6.1 1.6.4 1.8 8 4.1 1.6 12.4 4.7 18.9h-27v-14.7c0-.8.3-2.2.6-2.3 5.8-1.5 3.4-7.2 3.6-11.3.3-4.9.1-9.9.1-14.9-.1-3.2-.1-5.6-3-8.3-2-1.9-1.2-9.1-1-13.8 0-.8 3.3-2 5.1-2.1 8.3-.2 16.5 0 24.8-.1 3.1-.1 4.7 1.3 4.2 5.2-.5 4.3-1.3 8.5-1.9 12.7a6.4 6.4 0 00.2 2.5c2.4 8.5 4.8 16.9 7.3 25.9 6.9-14.7 9.3-29.5 5.6-46.2 11.8 0 22.3 0 32.7.1.8 0 2.3 1.4 2.2 1.9-.9 5.2 3.6 12.1-3.1 15.6-.7.4-.9 3-.9 4.6-.1 6.9-.1 13.8 0 20.7 0 3-1.1 6.8 3.1 7.2.4 0 1 2.1 1.1 3.2.2 4.4.2 8.9.2 14.3zM778.3 614.1h-26.8v-11.6a3.7 3.7 0 01.4-2c4.3-6.3 4.7-8.2 3.3-18.6-3.9 10.6-7.8 19.8-10.6 29.4-1.3 4.5-3.9 4.1-7 4.1-3.3-.1-6.5.9-8-4.2a181.4 181.4 0 00-11.3-28.4v15c0 .3.1.9.3.9 7.9 3.4 2.2 10 4.4 15.3h-27v-11.8c0-.7.3-1.8.6-1.9 5.9-1.2 3.5-5.9 3.7-9.2a78.4 78.4 0 00-.1-13.1c-.2-1.8-2.2-3.3-2.6-5.1a51 51 0 01-1.4-11.3c0-.8 3.1-2.1 4.8-2.1 8.6-.2 17.1 0 25.7-.1 3.2 0 4.7 1.1 4.2 4.3-.5 3.4-1.4 6.8-2 10.3a4.4 4.4 0 00.2 2.1c2.4 6.8 4.9 13.7 7.5 21.1 6.4-12.1 10-23.7 5.3-37.2 3.2-.2 5-.5 6.9-.5 8.4 0 16.8.1 25.1 0 2.8 0 4.4.9 4 3.9-.6 3.8 2.3 9-3.9 10.8-.4.1-.4 1.6-.4 2.5v19.9c0 .8.1 2.2.5 2.4 7.9 3.3 1.9 9.8 4.2 15.1zM872 587.6v-11c0-.9 0-2.3-.4-2.5-7.3-3.1-2.5-9.2-4.5-14.7 8.8 0 16.7-.1 24.6.1.8 0 2.4 1.6 2.2 2.1-1.1 4 3.6 9.6-3.4 12-.6.2-.8 2.1-.8 3.3-.1 5.6-.1 11.2 0 16.8.1 2.5-1.4 5.9 3.2 6.3.4 0 1 1.7 1 2.6.1 3.6 0 7.3 0 11.8-6.9 0-13.5.1-20-.1-1 0-2.3-1.7-3-2.9-5-8.4-9.8-16.8-15.9-25.1v11.5c0 .3 0 .9.2 1 8.1 3.5 1.8 10.2 4.7 15.5h-26.8V602c0-.3 0-.9.2-1 7.9-3.8 2.8-10.9 4-16.3.6-2.5.1-5.2.1-7.8 0-.9.1-2.3-.3-2.5-7.3-3-2.5-9.2-4.5-14.7 7.5 0 14.2-.1 20.9.1 1.1 0 2.4 1.9 3.1 3.1 4 6.9 7.8 14 11.8 20.9.8 1.5 1.8 2.8 2.7 4.3zM150 559.3c0 4.3.1 7.6 0 10.9 0 .8-.3 2.2-.7 2.3-6.8 2-2 7.2-4.1 11.2h12.2c-1.4-3.8 3.4-8.6-3.4-11.3-.9-.4-.7-3.8-.9-5.8s0-4.2 0-7.1c8.4 0 16.5 0 24.6.1.6 0 1.8 1.1 1.7 1.5-.9 4.2 3.6 9.8-3.2 12.6-.7.3-.9 2.5-.9 3.8-.1 5.4-.1 10.8 0 16.2.1 2.5-1.3 5.9 3.2 6.3.4 0 1 1.7 1 2.7.1 3.6 0 7.3 0 11.3h-26.4v-11.9c0-.7.3-1.8.6-1.9 6.5-1.4 2.6-6.2 4-9.9H146c.8 3.3-3.4 7.6 2.9 9.7.6.2 1 1.7 1 2.6.1 3.6.1 7.3.1 11.3h-26.6V602c0-.7.3-1.8.7-1.9 5.6-1.1 3.4-5.5 3.6-8.7a117.9 117.9 0 000-12c-.1-2.7.7-5.1-3-7.3-1.9-1.1-1.2-7.3-.9-11.2 0-.7 3.4-1.7 5.2-1.7 6.8-.1 13.6.1 21 .1zM324.3 614v-11.4c0-.8.3-2.3.6-2.4 6.1-.9 3.6-5.7 3.9-9 .3-4.2.1-8.4.1-12.5 0-2.5-.3-4.2-2.8-6.3-2.1-1.9-1.4-7.3-1.4-11.1 0-.6 3.4-1.6 5.2-1.7 8.4-.2 16.7-.1 25.1 0a25.5 25.5 0 016.2 1c7.5 2 11.1 5.7 11.4 11.8.4 6.9-2 9.8-11 13.2 1.9 1 3.5 1.8 5.1 2.7 6.7 4 8.4 13.5 2.7 18.8-3.3 3.1-7.8 6.2-11.9 6.6-10.8.9-21.6.3-33.2.3zm22.7-23.8v10.2c2.9-1.2 5.3-1.7 7.1-3.1.7-.5.7-3.6 0-4.1-1.8-1.3-4.1-1.8-7.1-3zm4.3-17.8l-2.3.1c-.8 1.4-2 2.7-2.3 4.2-.5 2.3 0 5 3.3 4.1 1.8-.4 4.4-2.2 4.4-3.4.2-1.6-1.9-3.3-3.1-5zM828.8 559.6v19.7h-13c-.3-1.8-.6-3.6-1-5.8h-11.2c1.1 2.8 1.5 6.2 3.2 7.2 2.1 1.2 5.3.6 8.3.7v9.2l-10.4.8v7.8h10.2c.3-2 .5-4 .8-6.5h13V614h-46.6v-12c0-.7.3-1.8.6-1.9 6.1-.9 3.5-5.7 3.8-9a107.3 107.3 0 00.1-12c-.1-2.6.1-4.6-2.9-6.8-2.1-1.5-1.3-7.3-1.2-11.1 0-.7 3.3-1.8 5.1-1.8 12-.2 24.1-.1 36.1-.1 1.6 0 3.1.2 5.1.3zM590 587c.5 16.1-11.9 28.9-26.6 28.9s-26.9-12.9-26.7-28.8c.3-17.6 10.6-29.2 26.6-29.2s26.6 11.6 26.7 29.1zm-34.5-.3c.6 3.5.5 6.9 1.8 9.6 1.1 2.4 4 5.7 5.8 5.5 2.3-.2 5.4-3.1 6.3-5.5 2.6-7.1 1.9-14.5-.8-21.5-.7-1.9-3.5-4.1-5.3-4.1s-4.5 2.2-5.2 4.1c-1.4 3.9-1.8 8.2-2.6 11.9zM678 582v8.7l-10 .6v7.9h9.7l1-6.6h12.9v21.3h-46.2v-12c0-.3 0-.9.2-1 7.8-4 2.9-11.2 4.1-16.9a25.6 25.6 0 000-7.8c-.1-1.1-1.2-2.1-1.9-3.1s-2.1-2.2-2.3-3.4c-1.2-10.3-1-10.5 9.3-10.5h30.9c1.9 0 3.7.2 5.9.3v19.8h-12.9c-.3-1.8-.6-3.6-1.2-7-3.4.9-9.1 1.2-9.5 2.9-2.4 9.6 6.5 4.1 10 6.8zM428.3 614.2h-22.4c.3-5.7.5-11.2.9-17.7-2.5 0-5.8-.1-9.2.1-.7.1-1.8 1.7-1.7 2.5.7 4.8 1.6 9.5 2.6 14.9h-23c-.1-5.9-.5-11.4 2.6-17.5 5.3-10.5 8.8-22 12.8-33.1 1.3-3.7 3.1-5.1 7.1-5 12.7.2 12.7 0 17.4 12.1 3.4 8.8 5.8 18 10.3 26.3 3.1 5.7 2.7 11 2.6 17.4zm-26.4-31.8c-1.2 3.4-1.9 5.5-3 8.5l6.1-.6zM235.1 614.1h-22c.3-5.7.6-11 .9-17.5-2.6 0-6.2-.1-9.8.1-.4 0-1.1 1.6-1 2.4.7 4.8 1.6 9.5 2.5 14.8h-23c-.4-6.1-.5-11.6 2.5-17.7 5.2-10.4 8.7-21.6 12.6-32.7 1.4-3.9 3.1-5.4 7.5-5.3 12.5.3 12.6 0 17.1 11.8 3.4 8.8 5.8 18 10.1 26.3a27.3 27.3 0 012.6 17.8zm-23-23.6l-3.1-8c-1.2 3.3-2 5.4-3 8zM617 589.9c1.9-5.3 4-9.2 4.6-13.2.5-3.1-1.2-6.4-1.3-9.7-.3-7.7-.1-7.7 7.4-7.8h14.8c-.3 5.6.5 10.2-2 15.7-5.4 11.7-9.3 24.1-13.3 36.3-1 3.1-2.3 4.1-5.4 4.1-13.3.1-13.3.3-17.9-12.3-3.3-9.2-6.8-18.3-9.9-27.6-1.6-4.8-2.6-9.9-4.2-16.1 8.4 0 14.9-.1 21.4.1a3.1 3.1 0 012.1 2.3c-.2 3.9-.9 7.7-1.2 11.6a13.3 13.3 0 00.5 4.9c1.1 3.6 2.5 6.9 4.4 11.7zM909.9 614.4v-11.7c0-.8.3-2.3.6-2.4 5.8-1.2 3.6-5.8 3.8-9.2a118.5 118.5 0 000-13.6c-.1-1.4-1.2-2.8-1.8-4.2-.8 1.4-1.7 2.8-2.5 4.3a8.2 8.2 0 00-.5 1.8h-13.1c0-6-.1-12 .2-18 0-.8 2.3-2 3.5-2 15.5-.1 31-.2 46.5 0 1.3 0 3.5 1.9 3.6 3 .4 5.5.2 11.1.2 17h-13a6.2 6.2 0 01-.6-.8c-.9-1.8-1.8-3.5-2.7-5.3-.7 1.9-1.8 3.7-2 5.6a128.5 128.5 0 000 13.6c.1 2.9-1.1 5.9 3.4 8 1.9.9 1 8 .8 12.2 0 .7-3.4 1.5-5.2 1.6-6.8.2-13.6.1-21.2.1zM77.6 592.8c2.4 1.4 5.6 4.1 9.2 5.2 2.9.8 7.3 1 9.1-.9 3-3.1.6-6.9-2.5-8.8-4-2.5-8.3-4.3-12.4-6.6-11.6-6.3-16-15-14.3-27.5 1.3-9.5 9-17.2 20.5-18 8.6-.6 17.5.4 26.1 1.9 7.3 1.3 3.4 8.6 4 13.3s-2.9 4.7-5.7 4.5c-5.2-.3-10.8 1.9-14.9-4.5-.8-1.2-5.2.5-7.9.9.9 3.6.8 8.7 2.9 10.6 4.4 3.8 10.1 5.6 15.2 8.6 9.9 5.9 13.8 14.7 11.7 25.9-1.6 8.8-8.3 17.3-16.2 17.6-10.2.4-20.4-.8-30.5-2.4-5.3-.8-8.9-13.5-5.2-17.2 1.9-2 5.9-1.5 10.9-2.6z"
        transform="translate(-65 -115.4)" />
</svg>
