<svg id="Layer_1" data-name="Layer 1" xmlns="http://www.w3.org/2000/svg" viewBox="0 0 885.33 500.56">
    <defs>
        <style>
            .cls-1 {
                fill: #ffbc2a;
            }
        </style>
    </defs>
    <path class="cls-1"
        d="M 518.8 492.5 c -6.7 -2.3 -12.7 -4 -18.4 -6.5 c -12.9 -5.8 -26.2 -10.9 -38.2 -18.2 c -16.2 -9.8 -32.2 -20.3 -44.9 -34.7 c -19.7 -22.4 -31.4 -47.7 -27.5 -78.4 c 2.9 -23.1 12 -43.7 25.4 -62.3 c 8 -11.1 17.4 -21.2 25.8 -32.1 c 12.2 -15.9 25 -31.4 35.8 -48.2 c 9.8 -15.4 16.9 -32.4 19.2 -51 c 2 -15.9 0.7 -31 -9.5 -45.7 c 2.4 0.9 3.7 1.3 5 1.9 a 195.8 195.8 0 0 1 65.3 51.3 c 28.2 34.1 38.7 73.4 30.2 117 c -4.6 23.4 -12.8 45.7 -25.7 65.9 c -8.2 12.9 -17.4 25.2 -25.8 38 c -11.1 16.7 -20.3 34.1 -22.2 54.6 a 115.5 115.5 0 0 0 4.1 42.5 C 517.7 488.3 518.1 489.9 518.8 492.5 Z"
        transform="translate(-65,-115.4)" />
    <path class="cls-1 animate bounce animate__bounce" 
        d="M 606.4 262.3 c 4.4 8.2 9 16.4 13.1 24.7 c 9.7 19.4 16.3 39.7 18.1 61.3 c 2.4 28.9 -4.3 55.3 -24.2 77.1 a 194.8 194.8 0 0 1 -24.6 22.4 c -17.3 13.4 -35.2 26.2 -53.1 39.4 c -4.2 -10.7 -6.4 -22.1 -4.9 -34 a 103 103 0 0 1 16.9 -45.2 c 8.2 -12.2 17.6 -23.5 25.4 -35.8 c 18.6 -29.2 28.8 -61.4 32.4 -95.8 c 0.5 -4.5 0.1 -9 0.1 -13.5 Z"
        transform="translate(-65,-115.4)" />
    <path class="cls-1"
        d="M 279.1 598 c 3 -7.9 5.5 -14.2 7.7 -20.6 c 0.5 -1.4 -0.3 -3.1 -0.5 -4.7 c -0.3 -3.9 -0.8 -7.8 -0.9 -11.6 c 0 -0.6 1.8 -1.6 2.7 -1.6 c 10.4 -0.1 20.8 -0.1 32.1 -0.1 c 0 3.9 0.1 7.3 0 10.7 c 0 0.8 -0.4 2.3 -0.8 2.3 c -5.9 1.1 -3.7 5.8 -3.8 9.1 a 98 98 0 0 0 0.2 13.6 c 0.1 1.6 1.7 3 2.6 4.6 c 0.6 0.9 1.5 1.9 1.6 2.9 c 0.2 3.6 0.1 7.3 0.1 11.4 H 293.5 c 0 -3.9 0 -7.9 0 -11.8 c 0 -0.7 0.2 -1.7 0.6 -1.9 c 8.3 -4.4 1.3 -11.6 4.2 -17 l -1.5 -0.4 c -3.6 9.5 -7.4 19 -10.5 28.7 c -1.1 3.3 -2.6 4.3 -5.5 3.8 c -3.1 -0.6 -7.2 2.2 -8.9 -3.5 a 231.8 231.8 0 0 0 -11.6 -29.6 c 0 4.8 0 9.6 0 14.4 c 0 0.8 0.2 2.3 0.6 2.4 c 7.6 2.4 2.5 8.6 3.8 12.8 c 0.1 0.5 -1.6 2.3 -2.6 2.4 c -7.8 0.2 -15.6 0.1 -24.1 0.1 c 0 -4.2 -0.1 -8 0 -11.8 c 0 -0.8 0.6 -2.1 1 -2.2 c 5.5 -0.8 3.5 -4.9 3.6 -8.1 c 0 -4.4 0.1 -8.7 0 -13.1 c -0.1 -2.6 0.1 -4.6 -3 -6.8 c -2 -1.4 -1.3 -7.3 -1.2 -11.1 c 0 -0.7 3 -1.8 4.6 -1.8 c 8.6 -0.2 17.1 0 25.6 -0.1 c 3.4 -0.1 5 1.1 4.5 4.5 c -0.5 3.2 -1.3 6.3 -1.9 9.4 a 6.3 6.3 0 0 0 -0.1 3 C 273.7 583 276.2 589.8 279.1 598 Z"
        transform="translate(-65,-115.4)" />
    <path class="cls-1"
        d="M 532.6 613.8 H 506.5 c 0 -5.2 0 -10.3 0 -15.4 a 3.1 3.1 0 0 1 0.2 -1.3 c 4.5 -9.7 4.5 -9.6 3 -21.8 c -0.8 2.6 -1.6 5.2 -2.4 7.8 c -2.7 9.5 -5.3 19.1 -8.3 28.5 a 5.6 5.6 0 0 1 -3.5 3.5 c -8.4 1.4 -8.7 1 -11.6 -9 c -3.1 -10.5 -6.2 -21 -10.3 -31.3 c 0 6 0 12.1 0 18.1 c 0 0.6 0.1 1.6 0.4 1.8 c 8 4.1 1.6 12.4 4.7 18.9 h -27 c 0 -4.9 0 -9.8 0 -14.7 c 0 -0.8 0.3 -2.2 0.6 -2.3 c 5.8 -1.5 3.4 -7.2 3.6 -11.3 c 0.3 -4.9 0.1 -9.9 0.1 -14.9 c -0.1 -3.2 -0.1 -5.6 -3 -8.3 c -2 -1.9 -1.2 -9.1 -1 -13.8 c 0 -0.8 3.3 -2 5.1 -2.1 c 8.3 -0.2 16.5 0 24.8 -0.1 c 3.1 -0.1 4.7 1.3 4.2 5.2 c -0.5 4.3 -1.3 8.5 -1.9 12.7 a 6.4 6.4 0 0 0 0.2 2.5 c 2.4 8.5 4.8 16.9 7.3 25.9 c 6.9 -14.7 9.3 -29.5 5.6 -46.2 c 11.8 0 22.3 0 32.7 0.1 c 0.8 0 2.3 1.4 2.2 1.9 c -0.9 5.2 3.6 12.1 -3.1 15.6 c -0.7 0.4 -0.9 3 -0.9 4.6 c -0.1 6.9 -0.1 13.8 0 20.7 c 0 3 -1.1 6.8 3.1 7.2 c 0.4 0 1 2.1 1.1 3.2 C 532.6 603.9 532.6 608.4 532.6 613.8 Z"
        transform="translate(-65,-115.4)" />
    <path class="cls-1"
        d="M 778.3 614.1 H 751.5 c 0 -4.1 0 -7.8 0 -11.6 a 3.7 3.7 0 0 1 0.4 -2 c 4.3 -6.3 4.7 -8.2 3.3 -18.6 c -3.9 10.6 -7.8 19.8 -10.6 29.4 c -1.3 4.5 -3.9 4.1 -7 4.1 c -3.3 -0.1 -6.5 0.9 -8 -4.2 a 181.4 181.4 0 0 0 -11.3 -28.4 c 0 5 0 10 0 15 c 0 0.3 0.1 0.9 0.3 0.9 c 7.9 3.4 2.2 10 4.4 15.3 H 696 c 0 -3.9 0 -7.9 0 -11.8 c 0 -0.7 0.3 -1.8 0.6 -1.9 c 5.9 -1.2 3.5 -5.9 3.7 -9.2 a 78.4 78.4 0 0 0 -0.1 -13.1 c -0.2 -1.8 -2.2 -3.3 -2.6 -5.1 a 51 51 0 0 1 -1.4 -11.3 c 0 -0.8 3.1 -2.1 4.8 -2.1 c 8.6 -0.2 17.1 0 25.7 -0.1 c 3.2 0 4.7 1.1 4.2 4.3 c -0.5 3.4 -1.4 6.8 -2 10.3 a 4.4 4.4 0 0 0 0.2 2.1 c 2.4 6.8 4.9 13.7 7.5 21.1 c 6.4 -12.1 10 -23.7 5.3 -37.2 c 3.2 -0.2 5 -0.5 6.9 -0.5 c 8.4 0 16.8 0.1 25.1 0 c 2.8 0 4.4 0.9 4 3.9 c -0.6 3.8 2.3 9 -3.9 10.8 c -0.4 0.1 -0.4 1.6 -0.4 2.5 q 0 10 0 19.9 c 0 0.8 0.1 2.2 0.5 2.4 C 782 602.3 776 608.8 778.3 614.1 Z"
        transform="translate(-65,-115.4)" />
    <path class="cls-1"
        d="M 872 587.6 c 0 -3.6 0 -7.3 0 -11 c 0 -0.9 0 -2.3 -0.4 -2.5 c -7.3 -3.1 -2.5 -9.2 -4.5 -14.7 c 8.8 0 16.7 -0.1 24.6 0.1 c 0.8 0 2.4 1.6 2.2 2.1 c -1.1 4 3.6 9.6 -3.4 12 c -0.6 0.2 -0.8 2.1 -0.8 3.3 c -0.1 5.6 -0.1 11.2 0 16.8 c 0.1 2.5 -1.4 5.9 3.2 6.3 c 0.4 0 1 1.7 1 2.6 c 0.1 3.6 0 7.3 0 11.8 c -6.9 0 -13.5 0.1 -20 -0.1 c -1 0 -2.3 -1.7 -3 -2.9 c -5 -8.4 -9.8 -16.8 -15.9 -25.1 c 0 3.8 0 7.7 0 11.5 c 0 0.3 0 0.9 0.2 1 c 8.1 3.5 1.8 10.2 4.7 15.5 H 833.1 c 0 -4.1 0 -8.2 0 -12.3 c 0 -0.3 0 -0.9 0.2 -1 c 7.9 -3.8 2.8 -10.9 4 -16.3 c 0.6 -2.5 0.1 -5.2 0.1 -7.8 c 0 -0.9 0.1 -2.3 -0.3 -2.5 c -7.3 -3 -2.5 -9.2 -4.5 -14.7 c 7.5 0 14.2 -0.1 20.9 0.1 c 1.1 0 2.4 1.9 3.1 3.1 c 4 6.9 7.8 14 11.8 20.9 c 0.8 1.5 1.8 2.8 2.7 4.3 Z"
        transform="translate(-65,-115.4)" />
    <path class="cls-1"
        d="M 150 559.3 c 0 4.3 0.1 7.6 0 10.9 c 0 0.8 -0.3 2.2 -0.7 2.3 c -6.8 2 -2 7.2 -4.1 11.2 h 12.2 c -1.4 -3.8 3.4 -8.6 -3.4 -11.3 c -0.9 -0.4 -0.7 -3.8 -0.9 -5.8 s 0 -4.2 0 -7.1 c 8.4 0 16.5 0 24.6 0.1 c 0.6 0 1.8 1.1 1.7 1.5 c -0.9 4.2 3.6 9.8 -3.2 12.6 c -0.7 0.3 -0.9 2.5 -0.9 3.8 c -0.1 5.4 -0.1 10.8 0 16.2 c 0.1 2.5 -1.3 5.9 3.2 6.3 c 0.4 0 1 1.7 1 2.7 c 0.1 3.6 0 7.3 0 11.3 H 153.1 c 0 -4 0 -8 0 -11.9 c 0 -0.7 0.3 -1.8 0.6 -1.9 c 6.5 -1.4 2.6 -6.2 4 -9.9 H 146 c 0.8 3.3 -3.4 7.6 2.9 9.7 c 0.6 0.2 1 1.7 1 2.6 c 0.1 3.6 0.1 7.3 0.1 11.3 H 123.4 c 0 -4 0 -8 0 -11.9 c 0 -0.7 0.3 -1.8 0.7 -1.9 c 5.6 -1.1 3.4 -5.5 3.6 -8.7 a 117.9 117.9 0 0 0 0 -12 c -0.1 -2.7 0.7 -5.1 -3 -7.3 c -1.9 -1.1 -1.2 -7.3 -0.9 -11.2 c 0 -0.7 3.4 -1.7 5.2 -1.7 C 135.8 559.1 142.6 559.3 150 559.3 Z"
        transform="translate(-65,-115.4)" />
    <path class="cls-1"
        d="M 324.3 614 c 0 -4.1 0 -7.8 0 -11.4 c 0 -0.8 0.3 -2.3 0.6 -2.4 c 6.1 -0.9 3.6 -5.7 3.9 -9 c 0.3 -4.2 0.1 -8.4 0.1 -12.5 c 0 -2.5 -0.3 -4.2 -2.8 -6.3 c -2.1 -1.9 -1.4 -7.3 -1.4 -11.1 c 0 -0.6 3.4 -1.6 5.2 -1.7 c 8.4 -0.2 16.7 -0.1 25.1 0 a 25.5 25.5 0 0 1 6.2 1 c 7.5 2 11.1 5.7 11.4 11.8 c 0.4 6.9 -2 9.8 -11 13.2 c 1.9 1 3.5 1.8 5.1 2.7 c 6.7 4 8.4 13.5 2.7 18.8 c -3.3 3.1 -7.8 6.2 -11.9 6.6 C 346.7 614.6 335.9 614 324.3 614 Z M 347 590.2 v 10.2 c 2.9 -1.2 5.3 -1.7 7.1 -3.1 c 0.7 -0.5 0.7 -3.6 0 -4.1 C 352.3 591.9 350 591.4 347 590.2 Z m 4.3 -17.8 l -2.3 0.1 c -0.8 1.4 -2 2.7 -2.3 4.2 c -0.5 2.3 0 5 3.3 4.1 c 1.8 -0.4 4.4 -2.2 4.4 -3.4 C 354.6 575.8 352.5 574.1 351.3 572.4 Z"
        transform="translate(-65,-115.4)" />
    <path class="cls-1"
        d="M 828.8 559.6 v 19.7 h -13 c -0.3 -1.8 -0.6 -3.6 -1 -5.8 H 803.6 c 1.1 2.8 1.5 6.2 3.2 7.2 c 2.1 1.2 5.3 0.6 8.3 0.7 v 9.2 l -10.4 0.8 v 7.8 h 10.2 c 0.3 -2 0.5 -4 0.8 -6.5 h 13 V 614 H 782.1 c 0 -4.1 0 -8 0 -12 c 0 -0.7 0.3 -1.8 0.6 -1.9 c 6.1 -0.9 3.5 -5.7 3.8 -9 a 107.3 107.3 0 0 0 0.1 -12 c -0.1 -2.6 0.1 -4.6 -2.9 -6.8 c -2.1 -1.5 -1.3 -7.3 -1.2 -11.1 c 0 -0.7 3.3 -1.8 5.1 -1.8 c 12 -0.2 24.1 -0.1 36.1 -0.1 C 825.3 559.3 826.8 559.5 828.8 559.6 Z"
        transform="translate(-65,-115.4)" />
    <path class="cls-1"
        d="M 590 587 c 0.5 16.1 -11.9 28.9 -26.6 28.9 s -26.9 -12.9 -26.7 -28.8 c 0.3 -17.6 10.6 -29.2 26.6 -29.2 S 589.9 569.5 590 587 Z m -34.5 -0.3 c 0.6 3.5 0.5 6.9 1.8 9.6 c 1.1 2.4 4 5.7 5.8 5.5 c 2.3 -0.2 5.4 -3.1 6.3 -5.5 c 2.6 -7.1 1.9 -14.5 -0.8 -21.5 c -0.7 -1.9 -3.5 -4.1 -5.3 -4.1 s -4.5 2.2 -5.2 4.1 C 556.7 578.7 556.3 583 555.5 586.7 Z"
        transform="translate(-65,-115.4)" />
    <path class="cls-1"
        d="M 678 582 v 8.7 l -10 0.6 v 7.9 h 9.7 l 1 -6.6 h 12.9 v 21.3 h -46.2 c 0 -4.1 0 -8 0 -12 c 0 -0.3 0 -0.9 0.2 -1 c 7.8 -4 2.9 -11.2 4.1 -16.9 a 25.6 25.6 0 0 0 0 -7.8 c -0.1 -1.1 -1.2 -2.1 -1.9 -3.1 s -2.1 -2.2 -2.3 -3.4 c -1.2 -10.3 -1 -10.5 9.3 -10.5 s 20.6 0 30.9 0 c 1.9 0 3.7 0.2 5.9 0.3 v 19.8 H 678.7 c -0.3 -1.8 -0.6 -3.6 -1.2 -7 c -3.4 0.9 -9.1 1.2 -9.5 2.9 C 665.6 584.8 674.5 579.3 678 582 Z"
        transform="translate(-65,-115.4)" />
    <path class="cls-1"
        d="M 428.3 614.2 H 405.9 c 0.3 -5.7 0.5 -11.2 0.9 -17.7 c -2.5 0 -5.8 -0.1 -9.2 0.1 c -0.7 0.1 -1.8 1.7 -1.7 2.5 c 0.7 4.8 1.6 9.5 2.6 14.9 H 375.5 c -0.1 -5.9 -0.5 -11.4 2.6 -17.5 c 5.3 -10.5 8.8 -22 12.8 -33.1 c 1.3 -3.7 3.1 -5.1 7.1 -5 c 12.7 0.2 12.7 0 17.4 12.1 c 3.4 8.8 5.8 18 10.3 26.3 C 428.8 602.5 428.4 607.8 428.3 614.2 Z m -26.4 -31.8 c -1.2 3.4 -1.9 5.5 -3 8.5 l 6.1 -0.6 Z"
        transform="translate(-65,-115.4)" />
    <path class="cls-1"
        d="M 235.1 614.1 h -22 c 0.3 -5.7 0.6 -11 0.9 -17.5 c -2.6 0 -6.2 -0.1 -9.8 0.1 c -0.4 0 -1.1 1.6 -1 2.4 c 0.7 4.8 1.6 9.5 2.5 14.8 H 182.7 c -0.4 -6.1 -0.5 -11.6 2.5 -17.7 c 5.2 -10.4 8.7 -21.6 12.6 -32.7 c 1.4 -3.9 3.1 -5.4 7.5 -5.3 c 12.5 0.3 12.6 0 17.1 11.8 c 3.4 8.8 5.8 18 10.1 26.3 A 27.3 27.3 0 0 1 235.1 614.1 Z m -23 -23.6 l -3.1 -8 c -1.2 3.3 -2 5.4 -3 8 Z"
        transform="translate(-65,-115.4)" />
    <path class="cls-1"
        d="M 617 589.9 c 1.9 -5.3 4 -9.2 4.6 -13.2 c 0.5 -3.1 -1.2 -6.4 -1.3 -9.7 c -0.3 -7.7 -0.1 -7.7 7.4 -7.8 h 14.8 c -0.3 5.6 0.5 10.2 -2 15.7 c -5.4 11.7 -9.3 24.1 -13.3 36.3 c -1 3.1 -2.3 4.1 -5.4 4.1 c -13.3 0.1 -13.3 0.3 -17.9 -12.3 c -3.3 -9.2 -6.8 -18.3 -9.9 -27.6 c -1.6 -4.8 -2.6 -9.9 -4.2 -16.1 c 8.4 0 14.9 -0.1 21.4 0.1 a 3.1 3.1 0 0 1 2.1 2.3 c -0.2 3.9 -0.9 7.7 -1.2 11.6 a 13.3 13.3 0 0 0 0.5 4.9 C 613.7 581.8 615.1 585.1 617 589.9 Z"
        transform="translate(-65,-115.4)" />
    <path class="cls-1"
        d="M 909.9 614.4 c 0 -4.5 0 -8.1 0 -11.7 c 0 -0.8 0.3 -2.3 0.6 -2.4 c 5.8 -1.2 3.6 -5.8 3.8 -9.2 a 118.5 118.5 0 0 0 0 -13.6 c -0.1 -1.4 -1.2 -2.8 -1.8 -4.2 c -0.8 1.4 -1.7 2.8 -2.5 4.3 a 8.2 8.2 0 0 0 -0.5 1.8 H 896.4 c 0 -6 -0.1 -12 0.2 -18 c 0 -0.8 2.3 -2 3.5 -2 c 15.5 -0.1 31 -0.2 46.5 0 c 1.3 0 3.5 1.9 3.6 3 c 0.4 5.5 0.2 11.1 0.2 17 H 937.4 a 6.2 6.2 0 0 1 -0.6 -0.8 c -0.9 -1.8 -1.8 -3.5 -2.7 -5.3 c -0.7 1.9 -1.8 3.7 -2 5.6 a 128.5 128.5 0 0 0 0 13.6 c 0.1 2.9 -1.1 5.9 3.4 8 c 1.9 0.9 1 8 0.8 12.2 c 0 0.7 -3.4 1.5 -5.2 1.6 C 924.3 614.5 917.5 614.4 909.9 614.4 Z"
        transform="translate(-65,-115.4)" />
    <path class="cls-1"
        d="M 77.6 592.8 c 2.4 1.4 5.6 4.1 9.2 5.2 c 2.9 0.8 7.3 1 9.1 -0.9 c 3 -3.1 0.6 -6.9 -2.5 -8.8 c -4 -2.5 -8.3 -4.3 -12.4 -6.6 C 69.4 575.4 65 566.7 66.7 554.2 c 1.3 -9.5 9 -17.2 20.5 -18 c 8.6 -0.6 17.5 0.4 26.1 1.9 c 7.3 1.3 3.4 8.6 4 13.3 s -2.9 4.7 -5.7 4.5 c -5.2 -0.3 -10.8 1.9 -14.9 -4.5 c -0.8 -1.2 -5.2 0.5 -7.9 0.9 c 0.9 3.6 0.8 8.7 2.9 10.6 c 4.4 3.8 10.1 5.6 15.2 8.6 c 9.9 5.9 13.8 14.7 11.7 25.9 c -1.6 8.8 -8.3 17.3 -16.2 17.6 c -10.2 0.4 -20.4 -0.8 -30.5 -2.4 c -5.3 -0.8 -8.9 -13.5 -5.2 -17.2 C 68.6 593.4 72.6 593.9 77.6 592.8 Z"
        transform="translate(-65,-115.4)" />
</svg>
