<svg id="Layer_1" data-name="Layer 1" xmlns="http://www.w3.org/2000/svg" viewBox="0 0 359.43 477.76">
    <defs>
        <style>
            .cls-1 {
                fill: #f18600;
            }
        </style>
    </defs>
    <path class="cls-1"
        d="M470.19,574c-13.93-4.59-28.35-8.12-41.69-14-24.48-10.79-48.94-21.93-72.26-34.91-17.29-9.63-32.56-22.46-46.15-37.26-14.67-16-25.06-33.88-30-54.64a89.57,89.57,0,0,1,1.64-47.93c6.24-19.83,14.62-38.9,28.2-55.23,9-10.81,17.43-22.09,27-32.36C347.44,286.36,359,276,370.06,265.15c5.48-5.41,11.35-10.6,15.95-16.7,10.91-14.47,21.66-29.11,31.57-44.26,12.73-19.46,20.77-40.63,21-64.25.17-15.75-4.07-29.92-14.68-42.15l1.4-1.55c11.79,5.79,23.78,11.21,35.32,17.45,21.81,11.82,42.24,25.86,59.83,43.15A258.94,258.94,0,0,1,551.3,194c24.44,35.22,30.52,74.55,21.72,115.69-5.54,25.84-15.11,50.59-30.47,72.74-4.77,6.87-8.68,14.36-13.76,21-7.71,10-16.37,19.36-24.13,29.36-12.49,16.09-25.28,31.78-33.68,50.83-11.52,26.11-10.22,52.05-3.65,78.54.88,3.56,2.86,6.85,4.34,10.27C471.17,572.91,470.68,573.46,470.19,574Z"
        transform="translate(-277.57 -96.24)" />
    <path class="cls-1"
        d="M486.14,569.58c-10.38-18.34-11.61-37.25-6.12-56.06a139.46,139.46,0,0,1,28.27-52.08q16.86-19.65,33.24-39.7c11.26-13.84,19.1-29.56,26.34-45.79,9.57-21.43,17-43.37,20.07-66.54,1.1-8.13.18-16.53,1.82-25.6,7,10.66,15.09,20.81,20.84,32.11,8.07,15.85,16.39,32,20.93,49,4.33,16.21,4.78,33.62,5.42,50.55.67,17.43-6.11,33.45-14.59,48.3a125.13,125.13,0,0,1-40.73,43.33c-29.34,19-59,37.65-88.41,56.52C490.75,565.24,488.68,567.43,486.14,569.58Z"
        transform="translate(-277.57 -96.24)" />
    <path class="cls-1" d="M281,382" transform="translate(-277.57 -96.24)" />
</svg>
