<svg id="Layer_1" data-name="Layer 1" xmlns="http://www.w3.org/2000/svg" viewBox="0 0 359.43 543.76">
    <defs>
        <style>
            .cls-1 {
                fill: #f18600;
            }
        </style>
    </defs>
    <path class="cls-1"
        d="M 470.2 640 c -13.9 -5.2 -28.4 -9.2 -41.7 -15.9 c -24.5 -12.3 -48.9 -25 -72.3 -39.7 c -17.3 -11 -32.6 -25.6 -46.1 -42.4 c -14.7 -18.2 -25.1 -38.6 -30 -62.2 a 115.5 115.5 0 0 1 1.6 -54.5 c 6.2 -22.6 14.6 -44.3 28.2 -62.9 c 9 -12.3 17.4 -25.1 27 -36.8 c 10.5 -12.9 22.1 -24.6 33.1 -37 c 5.5 -6.2 11.3 -12.1 15.9 -19 c 10.9 -16.5 21.7 -33.1 31.6 -50.4 c 12.7 -22.1 20.8 -46.3 21 -73.1 c 0.2 -17.9 -4.1 -34.1 -14.7 -48 l 1.4 -1.8 c 11.8 6.6 23.8 12.8 35.3 19.9 c 21.8 13.4 42.2 29.4 59.8 49.1 a 289.9 289.9 0 0 1 30.8 42.2 c 24.4 40.1 30.5 84.8 21.7 131.7 c -5.5 29.4 -15.1 57.6 -30.5 82.8 c -4.8 7.8 -8.7 16.3 -13.8 23.9 c -7.7 11.4 -16.4 22 -24.1 33.4 c -12.5 18.3 -25.3 36.2 -33.7 57.9 c -11.5 29.7 -10.2 59.2 -3.6 89.4 c 0.9 4 2.9 7.8 4.3 11.7 C 471.2 638.8 470.7 639.4 470.2 640 Z"
        transform="matrix(1,0,0,1,-277.6,-96.2)" />
    <path class="cls-1"
        d="M 486.1 635 c -10.4 -20.9 -11.6 -42.4 -6.1 -63.8 a 166.5 166.5 0 0 1 28.3 -59.3 q 16.9 -22.4 33.2 -45.2 c 11.3 -15.8 19.1 -33.6 26.3 -52.1 c 9.6 -24.4 17 -49.4 20.1 -75.7 c 1.1 -9.3 0.2 -18.8 1.8 -29.1 c 7 12.1 15.1 23.7 20.8 36.5 c 8.1 18 16.4 36.5 20.9 55.8 c 4.3 18.4 4.8 38.3 5.4 57.5 c 0.7 19.8 -6.1 38.1 -14.6 55 c -10 19.9 -23.6 36.7 -40.7 49.3 c -29.3 21.7 -59 42.9 -88.4 64.3 C 490.8 630 488.7 632.5 486.1 635 Z"
        transform="translate(-277.6,-96.2)" />
    <path class="cls-1" d="M 281 421.5" transform="translate(-277.6,-96.2)" />
</svg>
